# AST/ASF file generated using VICON BodyLanguage
# -----------------------------------------------
:version 1.10
:name VICON
:units
  mass 1.0
  length 0.45
  angle deg
:documentation
   .ast/.asf automatically generated from VICON data using
   VICON BodyBuilder and BodyLanguage model FoxedUp or BRILLIANT.MOD
:root
   order TX TY TZ RX RY RZ
   axis XYZ
   position 0 0 0  
   orientation 0 0 0 
:bonedata
  begin
     id 1 
     name lhipjoint
     direction 0.623415 -0.642378 0.445763 
     length 2.49859 
     axis 0 0 0  XYZ
  end
  begin
     id 2 
     name lfemur
     direction 0.34202 -0.939693 0  
     length 6.69689  
     axis 0 0 20  XYZ
    dof rx ry rz
    limits (-160.0 20.0)
           (-70.0 70.0)
           (-60.0 70.0)
  end
  begin
     id 3 
     name ltibia
     direction 0.34202 -0.939693 0   
     length 7.37574   
     axis 0 0 20   XYZ
    dof rx
    limits (-10.0 170.0)
  end
  begin
     id 4 
     name lfoot
     direction 0.084323 -0.231675 0.969132   
     length 2.09111   
     axis -90 7.62852e-016 20   XYZ
    dof rx rz
    limits (-45.0 90.0)
           (-70.0 20.0)
  end
  begin
     id 5 
     name ltoes
     direction 1.5357e-011 -4.21957e-011 1   
     length 1.04989   
     axis -90 7.62852e-016 20   XYZ
    dof rx
    limits (-90.0 20.0)
  end
  begin
     id 6 
     name rhipjoint
     direction -0.605402 -0.653903 0.45376   
     length 2.45455  
     axis 0 0 0  XYZ 
  end
  begin
     id 7 
     name rfemur
     direction -0.34202 -0.939693 0   
     length 6.64523   
     axis 0 0 -20   XYZ
    dof rx ry rz
    limits (-160.0 20.0)
           (-70.0 70.0)
           (-70.0 60.0)
  end
  begin
     id 8 
     name rtibia
     direction -0.34202 -0.939693 0   
     length 7.3339   
     axis 0 0 -20   XYZ
    dof rx
    limits (-10.0 170.0)
 end
 begin
     id 9 
     name rfoot
     direction -0.120854 -0.332043 0.93549   
     length 2.23135  
     axis -90 -7.62852e-016 -20   XYZ
    dof rx rz
    limits (-45.0 90.0)
           (-20.0 70.0)
  end
  begin
     id 10 
     name rtoes
     direction -1.53563e-011 -4.21914e-011 1   
     length 1.10614   
     axis -90 -7.62852e-016 -20   XYZ
    dof rx
    limits (-90.0 20.0)
  end
  begin
     id 11 
     name lowerback
     direction 0.0319682 0.998615 -0.0417941   
     length 2.02718   
     axis 0 0 0   XYZ
    dof rx ry rz
    limits (-20.0 45.0)
           (-30.0 30.0)
           (-30.0 30.0)
  end
  begin
     id 12 
     name upperback
     direction 7.63181e-005 0.995808 0.0914691   
     length 1.97539   
     axis 0 0 0   XYZ
    dof rx ry rz
    limits (-20.0 45.0)
           (-30.0 30.0)
           (-30.0 30.0)
  end
  begin
     id 13 
     name thorax
     direction -0.016423 0.993627 0.111514   
     length 2.00349   
     axis 0 0 0   XYZ
    dof rx ry rz
    limits (-20.0 45.0)
           (-30.0 30.0)
           (-30.0 30.0)
  end
  begin
     id 14 
     name lowerneck
     direction -0.174763 0.981668 -0.0760716   
     length 1.71436   
     axis 0 0 0   XYZ
    dof rx ry rz
    limits (-20.0 45.0)
           (-30.0 30.0)
           (-30.0 30.0)
  end
  begin
     id 15 
     name upperneck
     direction 0.345458 0.934587 -0.0848868   
     length 1.72805   
     axis 0 0 0   XYZ
    dof rx ry rz
    limits (-20.0 45.0)
           (-30.0 30.0)
           (-30.0 30.0)
  end
  begin
     id 16
     name head
     direction 0.13001 0.989848 -0.0574291  
     length 1.767  
     axis 0 0 0   XYZ
    dof rx ry rz
    limits (-20.0 45.0)
           (-30.0 30.0)
           (-30.0 30.0)
  end
  begin
     id 17 
     name lclavicle
     direction 0.952951 0.290122 0.0878234  
     length 3.54654  
     axis 0 0 0   XYZ
    dof ry rz
    limits (-20.0 10.0)
           (0.0 20.0)
  end
  begin
     id 18 
     name lhumerus
     direction 1 -4.48957e-011 -4.56525e-028   
     length 5.19807   
     axis 180 -30 -90   XYZ
    dof rx ry rz
    limits (-60.0 90.0)
           (-90.0 90.0)
           (-90.0 90.0)
  end
  begin
     id 19
     name lradius
     direction 1 -4.48979e-011 -2.0317e-027   
     length 3.0937   
     axis 180 -30 -90   XYZ
    dof rx
    limits (-10.0 170.0)
  end
  begin
     id 20
     name lwrist
     direction 1 -4.48953e-011 -3.05809e-027   
     length 1.54685   
     axis 8.48514e-016 90 90   XYZ
    dof ry
    limits (-180.0 0.0)
 end
  begin
     id 21 
     name lhand
     direction 1 -4.48952e-011 -6.11639e-027   
     length 0.672632   
     axis 3.9013e-015 90 90   XYZ
    dof rx rz
    limits (-90.0 90.0)
           (-45.0 45.0)
  end
  begin
     id 22 
     name lfingers
     direction 1 -4.48925e-011 -1.22426e-026   
     length 0.542293   
     axis 7.80276e-015 90 90   XYZ
    dof rx
    limits (0.0 90.0)
  end
  begin
     id 23
     name lthumb
     direction 0.707107 -6.3486e-011 0.707107   
     length 0.778628   
     axis -90 45 5.37419e-014   XYZ
    dof rx rz
    limits (-45.0 45.0)
           (-45.0 45.0)
  end
  begin
     id 24 
     name rclavicle
     direction -0.960732 0.273675 -0.0457849   
     length 3.52079  
     axis 0 0 0   XYZ 
    dof ry rz
    limits (-10.0 20.0)
           (-20.0 0.0)
  end
  begin
     id 25 
     name rhumerus
     direction -1 -4.48976e-011 -1.63613e-027  
     length 5.45222   
     axis 180 30 90   XYZ
    dof rx ry rz
    limits (-90.0 60.0)
           (-90.0 90.0)
           (-90.0 90.0)
  end
  begin
     id 26 
     name rradius
     direction -1 -4.48957e-011 -7.00033e-028   
     length 3.01284   
     axis 180 30 90   XYZ
    dof rx
    limits (-10.0 170.0)
  end
  begin
     id 27 
     name rwrist
     direction -1 -4.48983e-011 -3.05543e-027   
     length 1.50642   
     axis 8.48514e-016 -90 -90   XYZ
    dof ry
    limits (-180.0 0.0)
  end
  begin
     id 28
     name rhand
     direction -1 -4.48984e-011 -6.11072e-027   
     length 0.622296   
     axis 3.9013e-015 -90 -90   XYZ
    dof rx rz
    limits (-90.0 90.0)
           (-45.0 45.0)
  end
  begin
     id 29
     name rfingers
     direction -1 -4.48865e-011 -1.22637e-026   
     length 0.501711   
     axis 7.80276e-015 -90 -90   XYZ
    dof rx
    limits (0.0 90.0)
  end
  begin
     id 30
     name rthumb
     direction -0.707107 -6.34932e-011 0.707107   
     length 0.72036   
     axis -90 -45 -5.37419e-014   XYZ
    dof rx rz
    limits (-45.0 45.0)
           (-45.0 45.0)
  end
:hierarchy
  begin
    root lhipjoint rhipjoint lowerback
    lhipjoint lfemur
    lfemur ltibia
    ltibia lfoot
    lfoot ltoes
    rhipjoint rfemur
    rfemur rtibia
    rtibia rfoot
    rfoot rtoes
    lowerback upperback
    upperback thorax
    thorax lowerneck lclavicle rclavicle
    lowerneck upperneck
    upperneck head
    lclavicle lhumerus
    lhumerus lradius
    lradius lwrist
    lwrist lhand lthumb
    lhand lfingers
    rclavicle rhumerus
    rhumerus rradius
    rradius rwrist
    rwrist rhand rthumb
    rhand rfingers
  end

#!OML:ASF H:\Not Pregnant\Project 1\Capture day 1\Session 1\non-pregnant.ASF
:FULLY-SPECIFIED
:DEGREES
675
root 7.73426 16.2077 29.1365 180.098 -66.1724 -165.464
lowerback 5.55918 6.55751 3.76944
upperback -10.8962 8.94622 -1.07904
thorax -14.3354 3.58452 -4.76073
lowerneck 6.87825 -9.43725 -30.4274
upperneck 4.18766 -18.6997 36.4575
head 7.11289 -10.4235 17.308
rclavicle -2.94698e-014 -5.20816e-014
rhumerus -29.3864 -67.2669 18.5573
rradius 22.7392
rwrist 54.589
rhand -5.52618 -7.77433
rfingers 7.12502
rthumb 20.2878 -36.7347
lclavicle -2.94698e-014 -5.20816e-014
lhumerus -22.6988 20.0654 -5.00816
lradius 33.4935
lwrist 32.4726
lhand -18.0365 2.92161
lfingers 7.12502
lthumb 8.23513 32.7411
rfemur -120.865 -48.3429 81.8677
rtibia 156.746
rfoot -0.268548 0.155848
rtoes 32.6019
lfemur -20.9494 35.3821 -31.7807
ltibia 13.3129
lfoot -3.38379 -21.6763
ltoes 36.9047
676
root 7.73103 16.2068 29.1368 180.156 -66.1871 -165.513
lowerback 5.53934 6.55087 3.80677
upperback -10.9074 8.94036 -1.07494
thorax -14.332 3.57745 -4.77322
lowerneck 6.85914 -9.43967 -30.4012
upperneck 4.23657 -18.704 36.4222
head 7.12359 -10.4215 17.2841
rclavicle -8.00108e-015 -7.55382e-015
rhumerus -28.9805 -67.41 18.2468
rradius 22.7252
rwrist 54.7212
rhand -5.54442 -7.65421
rfingers 7.12502
rthumb 20.2703 -36.6165
lclavicle -8.00108e-015 -7.55382e-015
lhumerus -22.5602 20.0517 -4.88215
lradius 33.4994
lwrist 32.3687
lhand -17.8715 2.90719
lfingers 7.12502
lthumb 8.39439 32.7204
rfemur -120.938 -48.4627 81.9237
rtibia 156.759
rfoot -0.304401 0.205678
rtoes 32.5021
lfemur -20.9732 35.4151 -31.823
ltibia 13.332
lfoot -3.32935 -21.747
ltoes 37.0456
677
root 7.72785 16.2061 29.137 180.203 -66.2067 -165.551
lowerback 5.52189 6.54467 3.83751
upperback -10.9181 8.93493 -1.06675
thorax -14.3312 3.57148 -4.77814
lowerneck 6.84539 -9.44433 -30.3698
upperneck 4.27711 -18.7093 36.3833
head 7.12997 -10.4201 17.2566
rclavicle 5.46658e-014 2.78299e-014
rhumerus -28.5572 -67.5033 17.9191
rradius 22.7191
rwrist 54.7872
rhand -5.55625 -7.54884
rfingers 7.12502
rthumb 20.2589 -36.5123
lclavicle 5.46658e-014 2.78299e-014
lhumerus -22.4227 20.0094 -4.75959
lradius 33.4968
lwrist 32.228
lhand -17.6969 2.91591
lfingers 7.12502
lthumb 8.56283 32.7223
rfemur -121.009 -48.5903 81.9779
rtibia 156.771
rfoot -0.344761 0.260382
rtoes 32.4161
lfemur -20.988 35.4311 -31.8564
ltibia 13.3463
lfoot -3.30003 -21.7971
ltoes 37.1371
678
root 7.7247 16.2055 29.1371 180.237 -66.2294 -165.579
lowerback 5.50695 6.54118 3.86425
upperback -10.9272 8.93341 -1.05475
thorax -14.331 3.56813 -4.77762
lowerneck 6.83863 -9.45272 -30.3402
upperneck 4.30449 -18.7185 36.3459
head 7.13316 -10.4211 17.2288
rclavicle -2.70844e-014 -1.59028e-015
rhumerus -28.1489 -67.5805 17.6161
rradius 22.7143
rwrist 54.8179
rhand -5.58413 -7.46217
rfingers 7.12502
rthumb 20.2321 -36.4285
lclavicle -2.70844e-014 -1.59028e-015
lhumerus -22.2837 19.9489 -4.63823
lradius 33.4857
lwrist 32.0537
lhand -17.5038 2.93321
lfingers 7.12502
lthumb 8.74918 32.7319
rfemur -121.084 -48.7234 82.034
rtibia 156.784
rfoot -0.388466 0.317601
rtoes 32.389
lfemur -20.9932 35.4247 -31.8794
ltibia 13.3561
lfoot -3.30638 -21.819
ltoes 37.1626
679
root 7.72154 16.205 29.1371 180.264 -66.2536 -165.6
lowerback 5.49119 6.54031 3.88361
upperback -10.9333 8.93502 -1.03927
thorax -14.328 3.56764 -4.76948
lowerneck 6.83685 -9.46573 -30.3069
upperneck 4.31641 -18.7313 36.3093
head 7.13196 -10.4239 17.1989
rclavicle -7.01213e-014 -4.01545e-014
rhumerus -27.7651 -67.6602 17.3488
rradius 22.7081
rwrist 54.8391
rhand -5.61141 -7.38722
rfingers 7.12502
rthumb 20.2059 -36.3563
lclavicle -7.01213e-014 -4.01545e-014
lhumerus -22.1477 19.8923 -4.52352
lradius 33.4664
lwrist 31.8429
lhand -17.2853 2.96792
lfingers 7.12502
lthumb 8.96009 32.7577
rfemur -121.163 -48.8588 82.0923
rtibia 156.798
rfoot -0.439201 0.373963
rtoes 32.4575
lfemur -20.9916 35.4015 -31.8962
ltibia 13.3625
lfoot -3.34094 -21.8172
ltoes 37.1471
680
root 7.71842 16.2046 29.137 180.279 -66.2784 -165.607
lowerback 5.47388 6.54169 3.89825
upperback -10.9354 8.93975 -1.01894
thorax -14.3205 3.56994 -4.75346
lowerneck 6.83854 -9.4832 -30.2761
upperneck 4.31217 -18.7486 36.2789
head 7.12845 -10.4294 17.1709
rclavicle -4.73604e-014 1.19271e-015
rhumerus -27.4124 -67.7592 17.1239
rradius 22.7013
rwrist 54.8673
rhand -5.63665 -7.32046
rfingers 7.12502
rthumb 20.1816 -36.2921
lclavicle -4.73604e-014 1.19271e-015
lhumerus -22.0143 19.8317 -4.41474
lradius 33.4408
lwrist 31.6235
lhand -17.0613 3.01553
lfingers 7.12502
lthumb 9.17622 32.7959
rfemur -121.246 -48.9957 82.1557
rtibia 156.81
rfoot -0.487921 0.433538
rtoes 32.5374
lfemur -20.9835 35.348 -31.8994
ltibia 13.3692
lfoot -3.41575 -21.7783
ltoes 37.0718
681
root 7.71537 16.2043 29.1367 180.282 -66.3034 -165.602
lowerback 5.45592 6.54391 3.91131
upperback -10.9324 8.94614 -0.993539
thorax -14.3074 3.57413 -4.7308
lowerneck 6.83863 -9.50354 -30.2504
upperneck 4.29204 -18.7667 36.2567
head 7.12296 -10.4356 17.1468
rclavicle -4.40308e-014 -2.66371e-014
rhumerus -27.0898 -67.8966 16.9405
rradius 22.6927
rwrist 54.9317
rhand -5.6537 -7.2661
rfingers 7.12502
rthumb 20.1652 -36.2395
lclavicle -4.40308e-014 -2.66371e-014
lhumerus -21.8871 19.7723 -4.31498
lradius 33.4092
lwrist 31.4114
lhand -16.8363 3.07927
lfingers 7.12502
lthumb 9.39334 32.85
rfemur -121.329 -49.1347 82.2213
rtibia 156.82
rfoot -0.541219 0.498044
rtoes 32.6457
lfemur -20.9702 35.2676 -31.8908
ltibia 13.3762
lfoot -3.52617 -21.7059
ltoes 36.9412
682
root 7.71242 16.2045 29.1361 180.249 -66.3272 -165.558
lowerback 5.43799 6.54577 3.93297
upperback -10.9259 8.95408 -0.96074
thorax -14.2899 3.57901 -4.70458
lowerneck 6.83895 -9.52326 -30.232
upperneck 4.25644 -18.782 36.2455
head 7.11446 -10.441 17.1298
rclavicle -5.36222e-014 0
rhumerus -26.7923 -68.0778 16.7906
rradius 22.6797
rwrist 55.0391
rhand -5.6616 -7.21605
rfingers 7.12502
rthumb 20.1576 -36.1902
lclavicle -5.36222e-014 0
lhumerus -21.7762 19.7246 -4.22823
lradius 33.3787
lwrist 31.2079
lhand -16.6271 3.14844
lfingers 7.12502
lthumb 9.59513 32.9099
rfemur -121.402 -49.2765 82.2934
rtibia 156.822
rfoot -0.5936 0.574674
rtoes 32.7302
lfemur -20.9549 35.1678 -31.8598
ltibia 13.3861
lfoot -3.65665 -21.6084
ltoes 36.7843
683
root 7.70954 16.2049 29.1356 180.207 -66.353 -165.505
lowerback 5.42377 6.54687 3.95695
upperback -10.9173 8.96194 -0.92489
thorax -14.2724 3.58389 -4.6766
lowerneck 6.84373 -9.54058 -30.2263
upperneck 4.20581 -18.7945 36.2487
head 7.10347 -10.4463 17.1233
rclavicle -5.55106e-014 2.34566e-014
rhumerus -26.514 -68.2924 16.6651
rradius 22.6641
rwrist 55.1805
rhand -5.66187 -7.17466
rfingers 7.12502
rthumb 20.1574 -36.1489
lclavicle -5.55106e-014 2.34566e-014
lhumerus -21.679 19.6898 -4.15341
lradius 33.3521
lwrist 31.022
lhand -16.4377 3.22644
lfingers 7.12502
lthumb 9.7779 32.9794
rfemur -121.474 -49.4244 82.3604
rtibia 156.823
rfoot -0.647081 0.666726
rtoes 32.7842
lfemur -20.9392 35.0559 -31.8221
ltibia 13.401
lfoot -3.79729 -21.4999
ltoes 36.6192
684
root 7.70691 16.2055 29.1348 180.15 -66.3776 -165.435
lowerback 5.41366 6.54605 3.98235
upperback -10.9075 8.96821 -0.883771
thorax -14.257 3.5881 -4.64393
lowerneck 6.85357 -9.55252 -30.2356
upperneck 4.14299 -18.801 36.2678
head 7.09004 -10.4505 17.1298
rclavicle 4.42793e-014 1.07344e-014
rhumerus -26.2173 -68.5144 16.522
rradius 22.6414
rwrist 55.3207
rhand -5.66769 -7.15127
rfingers 7.12502
rthumb 20.1518 -36.1261
lclavicle 4.42793e-014 1.07344e-014
lhumerus -21.6056 19.6767 -4.0967
lradius 33.3323
lwrist 30.8539
lhand -16.2629 3.2979
lfingers 7.12502
lthumb 9.94651 33.0429
rfemur -121.544 -49.5707 82.437
rtibia 156.817
rfoot -0.689492 0.762656
rtoes 32.7538
lfemur -20.9272 34.9369 -31.7739
ltibia 13.4249
lfoot -3.94552 -21.3813
ltoes 36.4445
685
root 7.70448 16.2063 29.1339 180.085 -66.3993 -165.356
lowerback 5.40753 6.54389 4.00507
upperback -10.8982 8.97304 -0.838315
thorax -14.246 3.59191 -4.60554
lowerneck 6.87223 -9.55835 -30.2569
upperneck 4.07055 -18.8014 36.2986
head 7.07297 -10.4534 17.1468
rclavicle 8.1949e-014 4.81059e-014
rhumerus -25.902 -68.7428 16.3589
rradius 22.6136
rwrist 55.4601
rhand -5.67424 -7.13659
rfingers 7.12502
rthumb 20.1455 -36.1121
lclavicle 8.1949e-014 4.81059e-014
lhumerus -21.5549 19.676 -4.05857
lradius 33.3191
lwrist 30.712
lhand -16.1139 3.36649
lfingers 7.12502
lthumb 10.0902 33.1046
rfemur -121.616 -49.7125 82.5243
rtibia 156.807
rfoot -0.708487 0.858615
rtoes 32.5535
lfemur -20.921 34.8261 -31.722
ltibia 13.4563
lfoot -4.08422 -21.2686
ltoes 36.2971
686
root 7.70217 16.2073 29.1329 180.008 -66.4175 -165.264
lowerback 5.40536 6.54215 4.03117
upperback -10.8909 8.97938 -0.789797
thorax -14.2399 3.59587 -4.56658
lowerneck 6.90026 -9.55905 -30.2897
upperneck 3.99228 -18.7976 36.3378
head 7.05352 -10.4559 17.1723
rclavicle -1.15245e-013 -3.06128e-014
rhumerus -25.5637 -68.9525 16.1695
rradius 22.5823
rwrist 55.573
rhand -5.69459 -7.1355
rfingers 7.12502
rthumb 20.1259 -36.113
lclavicle -1.15245e-013 -3.06128e-014
lhumerus -21.5208 19.6908 -4.03728
lradius 33.3114
lwrist 30.5959
lhand -15.9868 3.42388
lfingers 7.12502
lthumb 10.2129 33.156
rfemur -121.694 -49.8468 82.6286
rtibia 156.793
rfoot -0.7061 0.947445
rtoes 32.256
lfemur -20.9216 34.722 -31.6655
ltibia 13.4948
lfoot -4.21298 -21.1606
ltoes 36.1712
687
root 7.69984 16.208 29.1321 179.945 -66.4356 -165.188
lowerback 5.40471 6.539 4.0506
upperback -10.8841 8.98284 -0.742617
thorax -14.2364 3.59892 -4.52539
lowerneck 6.92987 -9.55786 -30.3218
upperneck 3.91675 -18.7917 36.3751
head 7.03333 -10.4574 17.1976
rclavicle -6.91522e-014 -1.19271e-015
rhumerus -25.2454 -69.2157 15.9988
rradius 22.5515
rwrist 55.7314
rhand -5.70973 -7.13039
rfingers 7.12502
rthumb 20.1114 -36.1094
lclavicle -6.91522e-014 -1.19271e-015
lhumerus -21.4986 19.7111 -4.03502
lradius 33.3062
lwrist 30.5167
lhand -15.881 3.47449
lfingers 7.12502
lthumb 10.315 33.2015
rfemur -121.795 -49.9733 82.7494
rtibia 156.782
rfoot -0.673749 1.0197
rtoes 31.8861
lfemur -20.9271 34.6361 -31.6213
ltibia 13.536
lfoot -4.32415 -21.0727
ltoes 36.0715
688
root 7.69741 16.2086 29.1315 179.891 -66.4556 -165.123
lowerback 5.40464 6.53336 4.06737
upperback -10.8784 8.98226 -0.697945
thorax -14.235 3.59997 -4.48512
lowerneck 6.95477 -9.55732 -30.3479
upperneck 3.85168 -18.7866 36.4048
head 7.01545 -10.4585 17.2176
rclavicle -3.96575e-014 -1.94809e-014
rhumerus -24.92 -69.4835 15.8153
rradius 22.5205
rwrist 55.8972
rhand -5.70066 -7.11974
rfingers 7.12502
rthumb 20.1201 -36.0979
lclavicle -3.96575e-014 -1.94809e-014
lhumerus -21.4821 19.7334 -4.05294
lradius 33.2983
lwrist 30.4714
lhand -15.8051 3.52034
lfingers 7.12502
lthumb 10.3881 33.2437
rfemur -121.911 -50.0963 82.8808
rtibia 156.771
rfoot -0.621352 1.08285
rtoes 31.4726
lfemur -20.9344 34.5629 -31.5855
ltibia 13.5753
lfoot -4.42036 -21.001
ltoes 35.9841
